<svg width="120" height="54" viewBox="0 0 120 54" fill="none" xmlns="http://www.w3.org/2000/svg" role="img">
<path fill-rule="evenodd" clip-rule="evenodd" d="M0 11.3496C0 5.50003 3.69628 0.941422 9.58004 0.94165C15.4636 0.94165 18.7826 5.27188 18.7826 11.1219V19.4029H14.0302V10.5902C14.0302 8.08294 12.5216 6.1836 9.80635 6.1836C6.93994 6.1836 5.43138 8.08294 5.43138 10.5141V43.486C5.43138 45.993 6.93994 47.8165 9.80635 47.8165C12.5216 47.8165 14.0302 45.993 14.0302 43.4099V34.5211H18.7826V42.8781C18.7826 48.728 15.4636 53.0584 9.58004 53.0584C3.69628 53.0582 0 48.576 0 42.6502V11.3496ZM24 1.98389H29.4443V47.7667L39.6522 47.767V53.0583H24V1.98389ZM43.8261 53.0583H50.087V1.98389H43.8261V53.0583ZM64.4018 45.5372L67.7822 42.4225V10.5143C67.7822 8.23497 66.386 6.18383 63.6669 6.18383C60.9483 6.18383 59.5519 8.23497 59.5519 10.5143V43.486C59.5519 45.8412 60.9481 47.8165 63.6667 47.8165C64.6222 47.8165 65.4305 47.5888 66.0917 47.1327L64.4018 45.5372ZM73.073 11.3499V43.0302C73.073 44.9297 72.6319 46.753 71.8973 47.9685C72.4853 48.5762 73.5874 48.9561 75.1304 48.9561V52.2987C74.3958 52.8307 73.661 53.0584 72.2646 53.0584C70.8683 53.0584 69.6192 52.5267 68.8109 51.6152C67.3415 52.6026 65.5775 53.0584 63.6667 53.0584C57.9352 53.0584 54.2609 48.5762 54.2609 42.6504V11.3499C54.2609 5.42413 57.9354 0.94165 63.6669 0.94165C69.3989 0.94165 73.0732 5.42413 73.073 11.3499ZM92.8696 43.2367C92.8696 46.3342 91.5281 47.921 88.7702 47.921C86.0126 47.921 84.6707 46.3342 84.6707 43.2365L84.6709 1.98389H79.3044V42.9341C79.3044 49.1296 83.2547 53.0583 88.6958 53.0583C94.0619 53.0583 98.087 49.1296 98.087 42.9343V1.98389H92.8696V43.2367ZM120 1.98412L120 7.122H108.974V24.1469H116.928V29.1315H108.974V47.9202H120V53.0583H103.304V1.98389L120 1.98412Z" fill="#1A1A1A"/>
</svg>
